<?xml version="1.0" standalone="no"?>
<!DOCTYPE svg PUBLIC "-//W3C//DTD SVG 20010904//EN"
 "http://www.w3.org/TR/2001/REC-SVG-20010904/DTD/svg10.dtd">
<svg version="1.0" xmlns="http://www.w3.org/2000/svg"
 width="300.000000pt" height="300.000000pt" viewBox="0 0 300.000000 300.000000"
 preserveAspectRatio="xMidYMid meet">
<metadata>
Created by potrace 1.11, written by Peter Selinger 2001-2013
</metadata>
<g transform="translate(0.000000,300.000000) scale(0.100000,-0.100000)"
fill="#000000" stroke="none">
<path d="M275 1751 c-48 -12 -90 -37 -124 -76 -51 -58 -64 -100 -65 -200 0
-74 4 -98 23 -138 25 -51 68 -92 118 -114 35 -14 229 -18 249 -5 7 4 17 27 24
52 6 25 13 53 16 63 10 32 -25 18 -39 -15 -24 -56 -52 -73 -116 -73 -78 0
-129 34 -166 109 -86 175 -4 366 156 366 58 0 94 -22 113 -70 24 -60 40 -52
31 18 -4 31 -10 61 -14 65 -8 8 -122 27 -156 26 -11 -1 -33 -4 -50 -8z"/>
<path d="M1268 1730 c-8 -19 -52 -134 -98 -254 -76 -198 -86 -220 -112 -230
-51 -19 -32 -33 47 -33 57 -1 75 3 75 13 0 8 -6 14 -12 14 -7 0 -19 4 -27 9
-11 7 -9 22 14 85 l28 76 81 0 82 0 26 -74 c27 -74 24 -96 -9 -96 -7 0 -13 -6
-13 -14 0 -11 20 -14 95 -14 52 0 95 3 95 8 0 4 -15 17 -32 27 -30 18 -40 39
-118 253 -47 128 -90 240 -96 249 -10 13 -14 10 -26 -19z m38 -202 c13 -39 24
-75 24 -80 0 -4 -29 -8 -65 -8 -36 0 -65 4 -65 9 0 5 14 48 32 96 35 97 35 97
74 -17z"/>
<path d="M2651 1739 c-6 -13 -47 -121 -92 -239 -95 -253 -93 -248 -124 -256
-14 -3 -25 -12 -25 -19 0 -8 22 -12 75 -13 59 0 75 3 75 14 0 8 -6 14 -12 14
-38 1 -40 16 -13 94 l28 76 82 0 83 0 25 -74 c25 -74 23 -96 -10 -96 -7 0 -13
-6 -13 -14 0 -10 21 -13 95 -14 102 0 120 11 63 38 -29 14 -37 31 -119 254
-48 131 -92 243 -98 249 -7 7 -13 2 -20 -14z m35 -211 c13 -39 24 -75 24 -80
0 -4 -29 -8 -65 -8 -36 0 -65 3 -65 7 0 4 14 47 32 96 35 99 35 100 74 -15z"/>
<path d="M580 1737 c0 -7 14 -18 30 -24 l30 -11 0 -215 c0 -183 -2 -218 -16
-231 -8 -9 -22 -16 -30 -16 -8 0 -14 -6 -14 -14 0 -11 19 -14 90 -14 66 0 90
4 90 13 0 7 -11 16 -25 19 l-25 6 0 230 0 230 25 6 c14 3 25 12 25 20 0 11
-20 14 -90 14 -66 0 -90 -3 -90 -13z"/>
<path d="M840 1735 c0 -8 6 -15 14 -15 8 0 22 -7 30 -16 14 -13 16 -49 16
-242 -1 -250 -7 -294 -50 -359 -49 -72 -38 -84 27 -28 23 19 52 56 65 83 22
45 23 59 26 300 l4 252 24 6 c13 3 24 12 24 20 0 11 -20 14 -90 14 -73 0 -90
-3 -90 -15z"/>
<path d="M1570 1740 c0 -6 14 -16 30 -21 l30 -11 0 -228 0 -228 -31 -11 c-53
-18 -23 -29 78 -28 99 2 123 12 68 30 -16 6 -33 15 -37 21 -4 6 -8 51 -8 99
l0 88 32 -3 c29 -3 39 -13 93 -99 85 -136 88 -139 152 -139 57 0 69 13 27 32
-16 7 -55 55 -96 115 l-69 104 31 25 c40 35 60 74 60 122 0 47 -33 101 -75
122 -39 19 -285 28 -285 10z m245 -53 c20 -17 28 -35 32 -70 10 -86 -25 -127
-107 -127 l-40 0 0 110 0 110 44 0 c32 0 52 -6 71 -23z"/>
<path d="M2142 1730 c-62 -38 -81 -138 -39 -201 15 -22 49 -48 102 -76 91 -47
115 -72 115 -118 0 -71 -71 -111 -144 -81 -29 12 -42 27 -62 71 -14 31 -30 55
-36 53 -12 -4 -12 -5 -4 -79 7 -57 9 -61 41 -75 53 -22 173 -18 213 6 44 27
65 80 60 147 -6 67 -36 101 -133 150 -92 46 -115 68 -115 110 0 94 129 110
187 22 36 -54 49 -50 44 12 -3 47 -6 52 -37 65 -51 21 -152 18 -192 -6z"/>
</g>
</svg>
